<?xml version="1.0" encoding="utf-8"?>
<!-- Generator: Adobe Illustrator 28.6.0, SVG Export Plug-In . SVG Version: 9.03 Build 54939)  -->
<svg version="1.1" id="Calque_1" xmlns="http://www.w3.org/2000/svg" xmlns:xlink="http://www.w3.org/1999/xlink" x="0px" y="0px"
	 viewBox="0 0 1080 1080" style="enable-background:new 0 0 1080 1080;" xml:space="preserve">
<style type="text/css">
	.Ombre_x0020_portée{fill:none;}
	.Arrondis_x0020_2 pt{fill:#FFFFFF;stroke:#000000;stroke-miterlimit:10;}
	.Miroir_x0020_dynamique X{fill:none;}
	.Biseau_x0020_adouci{fill:url(#SVGID_1_);}
	.Crépuscule{fill:#FFFFFF;}
	.Feuillage_GS{fill:#FFDD00;}
	.Pompadour_GS{fill-rule:evenodd;clip-rule:evenodd;fill:#51AEE2;}
	.st0{fill:#FCCB4F;}
	.st1{fill:#FFFFFF;}
	.st2{fill:#A9C0A7;}
</style>
<linearGradient id="SVGID_1_" gradientUnits="userSpaceOnUse" x1="0" y1="0" x2="0.7071" y2="0.7071">
	<stop  offset="0" style="stop-color:#E6E6EB"/>
	<stop  offset="0.1738" style="stop-color:#E2E2E6"/>
	<stop  offset="0.352" style="stop-color:#D5D4D8"/>
	<stop  offset="0.5323" style="stop-color:#C0BFC2"/>
	<stop  offset="0.7139" style="stop-color:#A4A2A4"/>
	<stop  offset="0.8949" style="stop-color:#828282"/>
	<stop  offset="1" style="stop-color:#6B6E6E"/>
</linearGradient>
<g>
	
		<rect x="1216.5" y="-43.3" transform="matrix(6.123234e-17 -1 1 6.123234e-17 1287.9399 1358.9703)" class="st0" width="213.9" height="157.7"/>
	<path class="st0" d="M1528.2,11.2H1388v60.7h59.7v9.9H1388v60.7h70.3c38.6,0,69.8-38.7,69.8-86.5V11.2z M1473.4,68.6h12.1
		c3.7,0,6.7,3.7,6.7,8.3c0,4.6-3,8.3-6.7,8.3h-12.1V68.6z"/>
	<path class="st0" d="M1461.2-99.5H1388V12.8h140.2v-41.3C1528.2-67.7,1498.2-99.5,1461.2-99.5z M1464.8-38.3v12.8h-13.3v-12.8
		c0-3.9,3-7.1,6.7-7.1C1461.8-45.4,1464.8-42.2,1464.8-38.3z"/>
	
		<rect x="1351.2" y="-38.2" transform="matrix(6.123234e-17 -1 1 6.123234e-17 1426.2235 1462.9819)" class="st0" width="186.8" height="113.1"/>
	<g>
		<path class="st0" d="M1200.9,19h176.2v65h-75v10.6h75v65h-88.4c-48.5,0-87.8-41.5-87.8-92.7V19z M1269.8,80.4h-15.2
			c-4.6,0-8.4,4-8.4,8.9c0,4.9,3.8,8.9,8.4,8.9h15.2V80.4z"/>
		<path class="st0" d="M1285.2-99.5h92V20.7h-176.2v-44.2C1200.9-65.4,1238.6-99.5,1285.2-99.5z M1280.6-34v13.7h16.8V-34
			c0-4.2-3.8-7.6-8.4-7.6S1280.6-38.2,1280.6-34z"/>
		<path class="st0" d="M1553.3,19h-176.2v65h75v10.6h-75v65c38.2,0.1,76.4,0.2,114.6,0.3c12.4,0,25.3-0.5,41,4.4
			c6.1,1.9,17.7,6.2,30.3,11.8c15.1,6.7,19.4,9.7,21.5,8c3.6-2.8-5.3-14.6-16.4-41.7c-3.8-9.2-6.3-15.1-8.4-22.7
			c-4.6-16.3-6.3-32.9-6.3-52.8C1553.3,50.9,1553.3,35,1553.3,19z M1484.4,80.4h15.2c4.6,0,8.4,4,8.4,8.9c0,4.9-3.8,8.9-8.4,8.9
			h-15.2V80.4z"/>
		<path class="st0" d="M1469.1-99.5h-92V20.7h176.2v-44.2C1553.3-65.4,1515.6-99.5,1469.1-99.5z M1473.6-34v13.7h-16.8V-34
			c0-4.2,3.8-7.6,8.4-7.6S1473.6-38.2,1473.6-34z"/>
	</g>
	
		<rect x="1344.5" y="-42.7" transform="matrix(6.123234e-17 -1 1 6.123234e-17 1419.4729 1456.2314)" class="st0" width="186.8" height="122.2"/>
	<g>
		<path class="st1" d="M1316.2-75.1V18h-32.5v-39.6h-5.3V18h-32.5v-46.7c0-25.6,20.8-46.4,46.4-46.4H1316.2z M1285.5-38.7v-8
			c0-2.4-2-4.4-4.4-4.4c-2.4,0-4.4,2-4.4,4.4v8H1285.5z"/>
		<path class="st1" d="M1321.9-42.2v-12.7c0-11.1,9-20.2,20.2-20.2h53.1v32.9H1375V18h-32.9v-60.2H1321.9z"/>
		<path class="st1" d="M1400.9-42.2v-12.7c0-11.1,9-20.2,20.2-20.2h53.1v32.9H1454V18h-32.9v-60.2H1400.9z"/>
		<path class="st1" d="M1491.7-75.1c11.6,0,21,9.4,21,21v72h-32.5v-93.1H1491.7z"/>
		<path class="st1" d="M1245.9,53V42.1c0-9.5,7.7-17.3,17.3-17.3h45.4V53h-17.3v51.5h-28.1V53H1245.9z"/>
		<path class="st1" d="M1373.3,24.8v49.3c0,16.8-13.6,30.3-30.3,30.3c-16.8,0-30.3-13.6-30.3-30.3V24.8h28.1v54.6
			c0,1.2,1,2.2,2.2,2.2c1.2,0,2.2-1,2.2-2.2V24.8H1373.3z"/>
		<path class="st1" d="M1441.6,62.9v41.5h-60.2V24.8h22.1C1424.6,24.8,1441.6,41.9,1441.6,62.9z M1408.9,60.9h-6.9v7.6h6.9
			c2.1,0,3.8-1.7,3.8-3.8C1412.6,62.6,1411,60.9,1408.9,60.9z"/>
		<path class="st1" d="M1507.9,47.8H1474v4.5h33.9v23.8H1474v4.5h33.9v23.8h-60.2V64.5c0-21.9,17.8-39.7,39.7-39.7h20.5V47.8z"/>
		<path class="st1" d="M1256.9,114.9c0-0.7,0.7-1.2,1.5-1.2h10.3c2.5,0,4.6,2.1,4.6,4.6v6.2c0,2.5-2.1,4.6-4.6,4.6h-5.1
			c-0.5,0-0.9,0.4-0.9,0.9v4.4c0,0.5-0.4,0.9-0.9,0.9h-4.1c-0.5,0-0.9-0.4-0.9-0.9V114.9z M1262.3,119.8v2.9c0,0.5,0.4,0.9,0.9,0.9
			h3.1c0.9,0,1.7-0.8,1.7-1.7v-1.2c0-0.9-0.8-1.7-1.7-1.7h-3.1C1262.6,119,1262.3,119.4,1262.3,119.8z"/>
		<path class="st1" d="M1294.5,119.9c0-3.6,2.9-6.5,6.5-6.5h2.8c3.6,0,6.5,2.9,6.5,6.5v8.9c0,3.6-2.9,6.5-6.5,6.5h-2.8
			c-3.6,0-6.5-2.9-6.5-6.5V119.9z M1302.3,129.5h0.3c1.2,0,2.2-1,2.2-2.2v-5.9c0-1.2-1-2.2-2.2-2.2h-0.3c-1.2,0-2.2,1-2.2,2.2v5.9
			C1300.1,128.5,1301.1,129.5,1302.3,129.5z"/>
		<path class="st1" d="M1331.5,115.1c0-0.8,0.6-1.4,1.4-1.4h8.4c3.6,0,6.6,2.9,6.6,6.6v8.3c0,3.6-2.9,6.6-6.6,6.6h-8.4
			c-0.8,0-1.4-0.6-1.4-1.4V115.1z M1338,129h1.2c1.4,0,2.6-1.1,2.6-2.6v-4.6c0-1.4-1.1-2.6-2.6-2.6h-1.2c-0.5,0-0.9,0.4-0.9,0.9v8
			C1337.2,128.6,1337.6,129,1338,129z"/>
		<path class="st1" d="M1372.5,113.6h9.2c1.9,0,3.4,1.5,3.4,3.4v6.3c0,0.9-0.8,1.7-1.7,1.7h-1.9c-1,0-1.7-0.8-1.7-1.7v-2.6
			c0-1-0.8-1.7-1.7-1.7h-1.6c-0.9,0-1.7,0.8-1.7,1.7v6.5c0,0.9,0.7,1.7,1.7,1.7h7.3c1,0,1.7,0.8,1.7,1.7v2.7c0,0.9-0.8,1.7-1.7,1.7
			h-11.3c-1.9,0-3.4-1.5-3.4-3.4v-14.6C1369.1,115.2,1370.6,113.6,1372.5,113.6z"/>
		<path class="st1" d="M1410.6,114.3c0.1-0.4,0.4-0.7,0.9-0.7h8.2c0.4,0,0.8,0.3,0.8,0.7l3.9,19.7c0.1,0.5-0.3,1-0.8,1h-3.6
			c-0.4,0-0.8-0.3-0.9-0.7l-0.7-3.3c-0.1-0.4-0.4-0.7-0.8-0.7h-4.2c-0.4,0-0.8,0.3-0.9,0.7l-0.7,3.3c-0.1,0.4-0.4,0.7-0.8,0.7h-3.6
			c-0.5,0-0.9-0.5-0.9-1L1410.6,114.3z M1414.7,125.1h1.9c0.4,0,0.7-0.4,0.7-0.8l-1-4.7c-0.1-0.3-0.3-0.5-0.6-0.5
			c-0.3,0-0.6,0.2-0.7,0.5l-0.9,4.7C1413.9,124.7,1414.2,125.1,1414.7,125.1z"/>
		<path class="st1" d="M1449.9,113.4l11,0.1c1,0,1.8,0.8,1.8,1.7l0,2c0,1-0.8,1.7-1.7,1.7l-8.7,0c-0.5,0-0.9,0.3-0.9,0.8v0.8
			c0,0.5,0.4,0.9,0.9,0.9l6.4,0c2.2,0,4.1,1.9,4.1,4.1l0,5.7c0,2.3-1.9,4.1-4.1,4.1l-10.9-0.1c-1,0-1.8-0.8-1.7-1.7v-2
			c0-1,0.8-1.7,1.8-1.7l8.7,0c0.5,0,0.9-0.4,0.9-0.9l0-1.2c0-0.5-0.4-0.9-0.9-0.9l-6.4,0c-2.2,0-4.1-1.9-4.1-4.1l0-5.3
			C1445.8,115.2,1447.6,113.4,1449.9,113.4z"/>
		<path class="st1" d="M1501.7,114.5v4.2c0,0.5-0.4,0.8-0.8,0.8h-4.7c-0.5,0-0.8,0.4-0.8,0.9v13.8c0,0.5-0.4,0.9-0.9,0.9h-3.6
			c-0.5,0-0.9-0.4-0.9-0.9v-13.8c0-0.5-0.4-0.9-0.8-0.9h-4.7c-0.5,0-0.9-0.4-0.9-0.8v-4.2c0-0.5,0.4-0.9,0.9-0.9h16.5
			C1501.3,113.6,1501.7,114,1501.7,114.5z"/>
	</g>
</g>
<g>
	
		<rect x="118.4" y="329.6" transform="matrix(6.123234e-17 -1 1 6.123234e-17 -153.0144 832.5815)" class="st0" width="442.8" height="326.3"/>
	<path class="st0" d="M862.1,475.7H529.8v143.9h141.5v23.4H529.8V787h166.8c91.4,0,165.6-91.9,165.6-205.2V475.7z M732.2,611.8h28.7
		c8.7,0,15.8,8.8,15.8,19.6c0,10.8-7.1,19.6-15.8,19.6h-28.7V611.8z"/>
	<path class="st0" d="M703.2,241.2H529.8v238.4h332.3V392C862.1,308.7,791,241.2,703.2,241.2z M711.7,371v27.2h-31.6V371
		c0-8.3,7.1-15,15.8-15S711.7,362.8,711.7,371z"/>
	
		<rect x="442.4" y="358.7" transform="matrix(6.123234e-17 -1 1 6.123234e-17 171.0359 1156.6318)" class="st0" width="442.8" height="268.1"/>
	<g>
		<path class="st0" d="M86.2,491.1H509v142H328.9v23.1H509v142H296.8c-116.3,0-210.6-90.6-210.6-202.4V491.1z M251.4,625.3h-36.5
			c-11.1,0-20.1,8.7-20.1,19.3c0,10.7,9,19.3,20.1,19.3h36.5V625.3z"/>
		<path class="st0" d="M288.3,232.2H509v262.7H86.2v-96.6C86.2,306.6,176.7,232.2,288.3,232.2z M277.5,375.2v30h40.2v-30
			c0-9.1-9-16.5-20.1-16.5S277.5,366.1,277.5,375.2z"/>
		<path class="st0" d="M931.7,491.1H509v142H689v23.1H509v142c91.6,0.2,183.3,0.4,274.9,0.7c29.7,0.1,60.7-1.1,98.5,9.7
			c14.7,4.2,42.4,13.6,72.6,25.7c36.3,14.6,46.6,21.2,51.6,17.6c8.5-6.2-12.7-31.9-39.4-91.1c-9.1-20.1-15.1-32.9-20.3-49.5
			c-11.2-35.7-15.2-72-15.2-115.4C931.7,560.9,931.7,526,931.7,491.1z M766.5,625.3H803c11.1,0,20.1,8.7,20.1,19.3
			c0,10.7-9,19.3-20.1,19.3h-36.5V625.3z"/>
		<path class="st0" d="M729.6,232.2H509v262.7h422.8v-96.6C931.7,306.6,841.2,232.2,729.6,232.2z M740.5,375.2v30h-40.2v-30
			c0-9.1,9-16.5,20.1-16.5C731.5,358.7,740.5,366.1,740.5,375.2z"/>
	</g>
	
		<rect x="426.4" y="347.9" transform="matrix(6.123234e-17 -1 1 6.123234e-17 155.0334 1140.6293)" class="st0" width="442.8" height="289.8"/>
	<g>
		<path class="st1" d="M367,307.5v216.6h-75.7v-92.2H279v92.2h-75.7V415.4c0-59.6,48.3-107.9,107.9-107.9H367z M295.4,392.2v-18.7
			c0-5.7-4.6-10.3-10.3-10.3c-5.7,0-10.3,4.6-10.3,10.3v18.7H295.4z"/>
		<path class="st1" d="M380.2,384v-29.5c0-25.9,21-47,47-47h123.5V384h-47v140.1h-76.5V384H380.2z"/>
		<path class="st1" d="M564.1,384v-29.5c0-25.9,21-47,47-47h123.5V384h-47v140.1H611V384H564.1z"/>
		<path class="st1" d="M775.2,307.5c27,0,49,21.9,49,49v167.6h-75.7V307.5H775.2z"/>
		<path class="st1" d="M203.3,605.5v-25.2c0-22.2,18-40.2,40.2-40.2H349v65.4h-40.2v119.8h-65.4V605.5H203.3z"/>
		<path class="st1" d="M499.8,540.1v114.6c0,39-31.6,70.6-70.6,70.6c-39,0-70.6-31.6-70.6-70.6V540.1h65.5v127.1
			c0,2.8,2.3,5.1,5.1,5.1c2.8,0,5.1-2.3,5.1-5.1V540.1H499.8z"/>
		<path class="st1" d="M658.7,628.7v96.7h-140V540.1h51.5C619.1,540.1,658.7,579.7,658.7,628.7z M582.5,623.9h-16v17.6h16
			c4.9,0,8.8-3.9,8.8-8.8S587.4,623.9,582.5,623.9z"/>
		<path class="st1" d="M813,593.5h-78.9v10.5H813v55.3h-78.9v10.5H813v55.5H673v-92.9c0-51,41.3-92.3,92.3-92.3H813V593.5z"/>
	</g>
</g>
<g>
	
		<rect x="1208.9" y="583" transform="matrix(6.123234e-17 -1 1 6.123234e-17 652.5638 1968.1793)" class="st2" width="203" height="149.6"/>
	<path class="st0" d="M1549.8,650h-152.4v66h64.9v10.7h-64.9v66h76.4c41.9,0,75.9-42.1,75.9-94.1V650z M1490.3,712.4h13.2
		c4,0,7.3,4,7.3,9c0,5-3.2,9-7.3,9h-13.2V712.4z"/>
	<path class="st0" d="M1477,542.5h-79.5v109.3h152.4v-40.2C1549.8,573.4,1517.2,542.5,1477,542.5z M1480.9,602v12.5h-14.5V602
		c0-3.8,3.2-6.9,7.3-6.9S1480.9,598.2,1480.9,602z"/>
	
		<rect x="1357.4" y="596.3" transform="matrix(6.123234e-17 -1 1 6.123234e-17 801.1238 2116.7395)" class="st0" width="203" height="122.9"/>
	<g>
		<path class="st2" d="M1194.1,657h193.8v65.1h-82.5v10.6h82.5v65.1h-97.3c-53.3,0-96.6-41.6-96.6-92.8V657z M1269.9,718.6h-16.8
			c-5.1,0-9.2,4-9.2,8.9c0,4.9,4.1,8.9,9.2,8.9h16.8V718.6z"/>
		<path class="st2" d="M1286.8,538.3h101.2v120.4h-193.8v-44.3C1194.1,572.4,1235.6,538.3,1286.8,538.3z M1281.8,603.9v13.8h18.4
			v-13.8c0-4.2-4.1-7.6-9.2-7.6S1281.8,599.7,1281.8,603.9z"/>
		<path class="st2" d="M1581.7,657h-193.8v65.1h82.5v10.6h-82.5v65.1c42,0.1,84,0.2,126,0.3c13.6,0,27.8-0.5,45.1,4.4
			c6.7,1.9,19.5,6.2,33.3,11.8c16.6,6.7,21.4,9.7,23.7,8.1c3.9-2.8-5.8-14.6-18.1-41.8c-4.2-9.2-6.9-15.1-9.3-22.7
			c-5.1-16.4-7-33-7-52.9C1581.7,689,1581.7,673,1581.7,657z M1506,718.6h16.8c5.1,0,9.2,4,9.2,8.9c0,4.9-4.1,8.9-9.2,8.9H1506
			V718.6z"/>
		<path class="st2" d="M1489.1,538.3h-101.2v120.4h193.8v-44.3C1581.7,572.4,1540.3,538.3,1489.1,538.3z M1494.1,603.9v13.8h-18.4
			v-13.8c0-4.2,4.1-7.6,9.2-7.6S1494.1,599.7,1494.1,603.9z"/>
	</g>
	
		<rect x="1364.2" y="577.3" transform="matrix(6.123234e-17 -1 1 6.123234e-17 807.8632 2123.4788)" class="st2" width="203" height="161"/>
	<g>
		<path class="st1" d="M1322.8,572.9v99.3h-34.7v-42.3h-5.6v42.3h-34.7v-49.8c0-27.3,22.1-49.5,49.5-49.5H1322.8z M1290,611.7v-8.6
			c0-2.6-2.1-4.7-4.7-4.7c-2.6,0-4.7,2.1-4.7,4.7v8.6H1290z"/>
		<path class="st1" d="M1328.9,607.9v-13.5c0-11.9,9.6-21.5,21.5-21.5h56.6v35.1h-21.5v64.2h-35.1v-64.2H1328.9z"/>
		<path class="st1" d="M1413.2,607.9v-13.5c0-11.9,9.6-21.5,21.5-21.5h56.6v35.1h-21.5v64.2h-35.1v-64.2H1413.2z"/>
		<path class="st1" d="M1510,572.9c12.4,0,22.4,10.1,22.4,22.5v76.8h-34.7v-99.3H1510z"/>
		<path class="st1" d="M1247.8,709.5v-11.6c0-10.2,8.2-18.4,18.4-18.4h48.4v30h-18.4v54.9h-30v-54.9H1247.8z"/>
		<path class="st1" d="M1383.7,679.5V732c0,17.9-14.5,32.4-32.4,32.4c-17.9,0-32.4-14.5-32.4-32.4v-52.6h30v58.2
			c0,1.3,1,2.3,2.3,2.3c1.3,0,2.3-1,2.3-2.3v-58.2H1383.7z"/>
		<path class="st1" d="M1456.6,720.1v44.3h-64.2v-84.9h23.6C1438.4,679.5,1456.6,697.7,1456.6,720.1z M1421.6,717.9h-7.3v8.1h7.3
			c2.2,0,4-1.8,4-4S1423.9,717.9,1421.6,717.9z"/>
		<path class="st1" d="M1527.3,704h-36.2v4.8h36.2v25.3h-36.2v4.8h36.2v25.4h-64.2v-42.6c0-23.4,18.9-42.3,42.3-42.3h21.9V704z"/>
	</g>
</g>
<rect x="1246.3" y="915.3" transform="matrix(6.123234e-17 -1 1 6.123234e-17 353.4016 2352.2439)" class="st2" width="213" height="168.2"/>
<path class="st2" d="M1563.1,975.7h-140.4v60.8h59.8v9.9h-59.8v60.8h70.5c38.6,0,70-38.8,70-86.7V975.7z M1508.2,1033.2h12.1
	c3.7,0,6.7,3.7,6.7,8.3c0,4.6-3,8.3-6.7,8.3h-12.1V1033.2z"/>
<path class="st2" d="M1495.9,864.8h-73.3v112.5h140.4V936C1563.1,896.7,1533,864.8,1495.9,864.8z M1499.5,926.1v12.9h-13.4v-12.9
	c0-3.9,3-7.1,6.7-7.1C1496.5,919,1499.5,922.2,1499.5,926.1z"/>
<rect x="1385.7" y="926.2" transform="matrix(6.123234e-17 -1 1 6.123234e-17 496.4095 2462.1775)" class="st0" width="187.1" height="113.3"/>
<g>
	<path class="st2" d="M1231.2,983.5h178.3v65.1h-76v10.6h76v65.1H1320c-49.1,0-88.9-41.6-88.9-92.8V983.5z M1300.9,1045h-15.4
		c-4.7,0-8.5,4-8.5,8.9c0,4.9,3.8,8.9,8.5,8.9h15.4V1045z"/>
	<path class="st2" d="M1316.4,864.8h93.1v120.4h-178.3V941C1231.2,898.9,1269.3,864.8,1316.4,864.8z M1311.8,930.4v13.8h17v-13.8
		c0-4.2-3.8-7.6-8.5-7.6C1315.6,922.8,1311.8,926.2,1311.8,930.4z"/>
	<path class="st2" d="M1587.8,983.5h-178.3v65.1h76v10.6h-76v65.1c38.7,0.1,77.3,0.2,116,0.3c12.5,0,25.6-0.5,41.5,4.4
		c6.2,1.9,17.9,6.2,30.6,11.8c15.3,6.7,19.7,9.7,21.8,8.1c3.6-2.8-5.4-14.6-16.6-41.8c-3.8-9.2-6.4-15.1-8.5-22.7
		c-4.7-16.4-6.4-33-6.4-52.9C1587.8,1015.5,1587.8,999.5,1587.8,983.5z M1518.1,1045h15.4c4.7,0,8.5,4,8.5,8.9
		c0,4.9-3.8,8.9-8.5,8.9h-15.4V1045z"/>
	<path class="st2" d="M1502.6,864.8h-93.1v120.4h178.3V941C1587.8,898.9,1549.7,864.8,1502.6,864.8z M1507.2,930.4v13.8h-17v-13.8
		c0-4.2,3.8-7.6,8.5-7.6C1503.4,922.8,1507.2,926.2,1507.2,930.4z"/>
</g>
<rect x="1379" y="921.7" transform="matrix(6.123234e-17 -1 1 6.123234e-17 489.6474 2455.4153)" class="st2" width="187.1" height="122.5"/>
<path class="st1" d="M1350.7,889.2v93.2h-32.6v-39.7h-5.3v39.7h-32.6v-46.8c0-25.7,20.8-46.4,46.4-46.4H1350.7z M1319.9,925.7v-8.1
	c0-2.4-2-4.4-4.4-4.4c-2.5,0-4.4,2-4.4,4.4v8.1H1319.9z"/>
<path class="st1" d="M1356.4,922.2v-12.7c0-11.2,9.1-20.2,20.2-20.2h53.1v32.9h-20.2v60.3h-32.9v-60.3H1356.4z"/>
<path class="st1" d="M1435.6,922.2v-12.7c0-11.2,9.1-20.2,20.2-20.2h53.1v32.9h-20.2v60.3h-32.9v-60.3H1435.6z"/>
<path class="st1" d="M1526.4,889.2c11.6,0,21.1,9.4,21.1,21.1v72.2h-32.6v-93.2H1526.4z"/>
<path class="st1" d="M1280.2,1017.5v-10.9c0-9.5,7.7-17.3,17.3-17.3h45.5v28.2h-17.3v51.6h-28.2v-51.6H1280.2z"/>
<path class="st1" d="M1407.9,989.4v49.3c0,16.8-13.6,30.4-30.4,30.4c-16.8,0-30.4-13.6-30.4-30.4v-49.3h28.2v54.7
	c0,1.2,1,2.2,2.2,2.2c1.2,0,2.2-1,2.2-2.2v-54.7H1407.9z"/>
<path class="st1" d="M1476.3,1027.5v41.6H1416v-79.7h22.2C1459.2,989.4,1476.3,1006.4,1476.3,1027.5z M1443.5,1025.4h-6.9v7.6h6.9
	c2.1,0,3.8-1.7,3.8-3.8C1447.3,1027.1,1445.6,1025.4,1443.5,1025.4z"/>
<path class="st1" d="M1542.7,1012.4h-34v4.5h34v23.8h-34v4.5h34v23.9h-60.3v-40c0-21.9,17.8-39.7,39.7-39.7h20.6V1012.4z"/>
<g>
	<path class="st1" d="M1297.3,1085.5c0-0.7,0.6-1.3,1.3-1.3h7.8c3.4,0,6.1,2.7,6.1,6.1v7.7c0,3.4-2.7,6.1-6.1,6.1h-7.8
		c-0.7,0-1.3-0.6-1.3-1.3V1085.5z M1303.4,1098.4h1.1c1.3,0,2.4-1.1,2.4-2.4v-4.2c0-1.3-1.1-2.4-2.4-2.4h-1.1
		c-0.5,0-0.8,0.4-0.8,0.8v7.4C1302.6,1098,1303,1098.4,1303.4,1098.4z"/>
	<path class="st1" d="M1349.7,1089.2h-3.4c-0.5,0-0.8,0.3-0.8,0.8v8.2c0,0.5,0.3,0.8,0.8,0.8h3.4c0.4,0,0.8,0.4,0.8,0.8v3.4
		c0,0.4-0.4,0.8-0.8,0.8h-13.6c-0.5,0-0.8-0.4-0.8-0.8v-3.4c0-0.4,0.3-0.8,0.8-0.8h3.5c0.5,0,0.8-0.3,0.8-0.8v-8.2
		c0-0.5-0.3-0.8-0.8-0.8h-3.5c-0.5,0-0.8-0.4-0.8-0.8v-3.4c0-0.4,0.3-0.8,0.8-0.8h13.6c0.4,0,0.8,0.4,0.8,0.8v3.4
		C1350.5,1088.8,1350.1,1089.2,1349.7,1089.2z"/>
	<path class="st1" d="M1377.2,1083.9l10.2,0.1c0.9,0,1.6,0.7,1.6,1.6l0,1.9c0,0.9-0.7,1.6-1.6,1.6l-8.1,0c-0.5,0-0.8,0.3-0.8,0.8
		v0.7c0,0.5,0.3,0.8,0.8,0.8l5.9,0c2.1,0,3.8,1.7,3.8,3.8l0,5.3c0,2.1-1.7,3.8-3.8,3.8l-10.2-0.1c-0.9,0-1.6-0.7-1.6-1.6v-1.9
		c0-0.9,0.7-1.6,1.6-1.6l8,0c0.5,0,0.8-0.3,0.8-0.8l0-1.1c0-0.5-0.4-0.8-0.8-0.8l-5.9,0c-2.1,0-3.8-1.7-3.8-3.8l0-4.9
		C1373.4,1085.6,1375.1,1083.9,1377.2,1083.9z"/>
	<path class="st1" d="M1415,1084.2h8.5c1.8,0,3.2,1.4,3.2,3.2v5.8c0,0.9-0.7,1.6-1.6,1.6h-1.8c-0.9,0-1.6-0.7-1.6-1.6v-2.4
		c0-0.9-0.7-1.6-1.6-1.6h-1.5c-0.9,0-1.6,0.7-1.6,1.6v6c0,0.9,0.7,1.6,1.6,1.6h6.8c0.9,0,1.6,0.7,1.6,1.6v2.5c0,0.9-0.7,1.6-1.6,1.6
		H1415c-1.8,0-3.2-1.4-3.2-3.2v-13.5C1411.8,1085.6,1413.2,1084.2,1415,1084.2z"/>
	<path class="st1" d="M1449.8,1098.7v-13.8c0-0.5,0.3-0.8,0.8-0.8h3.4c0.4,0,0.8,0.3,0.8,0.8v11.8c0,1,0.8,1.9,1.9,1.9h1.3
		c1,0,1.9-0.8,1.9-1.9v-11.8c0-0.5,0.3-0.8,0.8-0.8h3.4c0.5,0,0.8,0.3,0.8,0.8v13.8c0,2.9-2.4,5.3-5.3,5.3h-4.4
		C1452.2,1104,1449.8,1101.7,1449.8,1098.7z"/>
	<path class="st1" d="M1504.2,1084.9v3.9c0,0.4-0.3,0.8-0.8,0.8h-4.4c-0.4,0-0.8,0.3-0.8,0.8v12.8c0,0.4-0.4,0.8-0.8,0.8h-3.4
		c-0.4,0-0.8-0.3-0.8-0.8v-12.8c0-0.5-0.3-0.8-0.8-0.8h-4.4c-0.5,0-0.8-0.3-0.8-0.8v-3.9c0-0.4,0.3-0.8,0.8-0.8h15.3
		C1503.9,1084.2,1504.2,1084.5,1504.2,1084.9z"/>
	<path class="st1" d="M1527.6,1084.2h13.7c0.5,0,0.8,0.3,0.8,0.8v3.4c0,0.5-0.3,0.8-0.8,0.8h-8.7c-0.5,0-0.8,0.4-0.8,0.8v1.4
		c0,0.4,0.3,0.8,0.8,0.8h5.7c0.4,0,0.8,0.3,0.8,0.8v3.4c0,0.4-0.4,0.8-0.8,0.8h-5.7c-0.5,0-0.8,0.4-0.8,0.8v0.4
		c0,0.5,0.3,0.8,0.8,0.8h8.7c0.5,0,0.8,0.4,0.8,0.8v3.4c0,0.4-0.3,0.8-0.8,0.8h-13.7c-0.5,0-0.8-0.3-0.8-0.8v-18.3
		C1526.8,1084.5,1527.1,1084.2,1527.6,1084.2z"/>
</g>
</svg>
