<?xml version="1.0" encoding="UTF-8" standalone="no"?>
<!-- Created with Inkscape (http://www.inkscape.org/) -->

<svg
   width="18.445902mm"
   height="14.856974mm"
   viewBox="0 0 18.445902 14.856974"
   version="1.1"
   id="svg1"
   inkscape:export-filename="Attitudémoi.svg"
   inkscape:export-xdpi="96"
   inkscape:export-ydpi="96"
   sodipodi:docname="Attitudémoi.svg"
   inkscape:version="1.4.3 (0d15f75, 2025-12-25)"
   xmlns:inkscape="http://www.inkscape.org/namespaces/inkscape"
   xmlns:sodipodi="http://sodipodi.sourceforge.net/DTD/sodipodi-0.dtd"
   xmlns="http://www.w3.org/2000/svg"
   xmlns:svg="http://www.w3.org/2000/svg">
  <sodipodi:namedview
     id="namedview1"
     pagecolor="#ffffff"
     bordercolor="#000000"
     borderopacity="0.25"
     inkscape:showpageshadow="2"
     inkscape:pageopacity="0.0"
     inkscape:pagecheckerboard="0"
     inkscape:deskcolor="#d1d1d1"
     inkscape:document-units="mm"
     inkscape:zoom="14.371618"
     inkscape:cx="34.860376"
     inkscape:cy="28.076171"
     inkscape:window-width="1920"
     inkscape:window-height="1009"
     inkscape:window-x="-8"
     inkscape:window-y="-8"
     inkscape:window-maximized="1"
     inkscape:current-layer="layer3">
    <inkscape:page
       x="0"
       y="1.4034147e-22"
       width="18.445902"
       height="14.856975"
       id="page2"
       margin="0"
       bleed="0" />
  </sodipodi:namedview>
  <defs
     id="defs1">
    <inkscape:path-effect
       effect="simplify"
       id="path-effect8-6"
       is_visible="true"
       lpeversion="1.3"
       threshold="17"
       steps="1"
       smooth_angles="360"
       helper_size="0"
       simplify_individual_paths="false"
       simplify_just_coalesce="false" />
    <inkscape:path-effect
       effect="spiro"
       id="path-effect9-1"
       is_visible="true"
       lpeversion="1" />
    <rect
       x="63"
       y="283"
       width="227.62801"
       height="24.486259"
       id="rect2-11-1-1-7" />
  </defs>
  <g
     inkscape:groupmode="layer"
     id="layer3"
     inkscape:label="DEUX LIGNES"
     transform="translate(-83.079165,-165.36459)">
    <g
       id="g111-4-7-6"
       inkscape:label="finale"
       transform="matrix(0.34510288,0,0,0.34510288,68.972008,152.33544)"
       style="fill:#ffffff;fill-opacity:1">
      <path
         id="path82-4-6-27-6-5"
         style="font-size:22.5778px;font-family:'Blue Winter';-inkscape-font-specification:'Blue Winter';fill:#ffffff;fill-opacity:1;stroke-width:0.264583"
         d="m 88.970797,59.670629 c -0.63218,0.0085 -1.246512,0.09721 -1.844822,0.266541 -0.7827,0.225773 -1.498578,0.594828 -2.145805,1.106594 -0.647233,0.51176 -1.151148,1.157958 -1.512395,1.940658 -0.4365,0.918167 -0.737372,1.866733 -0.902945,2.8451 -0.150513,0.978373 -0.180159,1.941756 -0.08984,2.890023 0.105366,0.93322 0.323233,1.821012 0.654373,2.663912 0.346193,0.827853 0.805661,1.558547 1.377627,2.190727 0.571974,0.617126 1.256715,1.098818 2.054462,1.445011 0.797753,0.346167 1.700361,0.495857 2.708835,0.450724 0.4064,-0.01505 0.827316,-0.09064 1.263823,-0.226111 0.4365,-0.12042 0.844098,-0.292334 1.220398,-0.518107 0.391347,-0.210727 0.729265,-0.467137 1.015252,-0.768177 0.301033,-0.316087 0.518906,-0.670319 0.654373,-1.061672 0.105386,-0.33114 0.180977,-0.654242 0.22611,-0.970329 0.0602,-0.33114 0.0602,-0.624603 0,-0.880483 -0.04515,-0.27094 -0.157797,-0.503623 -0.338417,-0.699296 -0.165573,-0.195673 -0.414576,-0.332039 -0.745716,-0.407299 -0.436506,-0.105333 -0.842607,-0.127584 -1.2189,-0.06738 -0.361247,0.06021 -0.699165,0.143206 -1.015252,0.248572 -0.316093,0.10536 -0.616958,0.210596 -0.902945,0.315956 -0.270933,0.105367 -0.549574,0.157229 -0.835561,0.157229 -0.376293,0 -0.654941,-0.09782 -0.835561,-0.293494 -0.16558,-0.210727 -0.278217,-0.450824 -0.338417,-0.721757 -0.0602,-0.270933 -0.08395,-0.549574 -0.06888,-0.835561 0.01507,-0.285987 0.03135,-0.511268 0.04642,-0.676834 0.316093,0.120413 0.68365,0.233057 1.105097,0.338417 0.436506,0.105333 0.873736,0.173516 1.310243,0.203649 0.451553,0.03007 0.887293,0.02267 1.308746,-0.02246 0.421453,-0.04515 0.775685,-0.151887 1.061672,-0.317454 0.481653,-0.285986 0.880346,-0.653536 1.196439,-1.105096 0.316087,-0.451554 0.550273,-0.94066 0.700793,-1.467473 0.165573,-0.52682 0.248572,-1.069279 0.248572,-1.626199 0,-0.556914 -0.083,-1.083066 -0.248572,-1.579779 -0.165573,-0.496714 -0.414576,-0.941359 -0.745716,-1.332705 -0.33114,-0.391347 -0.73724,-0.692218 -1.2189,-0.902945 -0.797747,-0.331167 -1.633677,-0.519394 -2.506683,-0.564528 -0.21449,-0.01505 -0.427175,-0.02079 -0.637902,-0.01797 z m 0.417781,3.945705 c 0.09407,0 0.174849,0.02373 0.242582,0.06888 0.135453,0.09031 0.211044,0.217773 0.226111,0.38334 0.01505,0.165573 -0.0294,0.346393 -0.134768,0.542066 -0.10536,0.180627 -0.278779,0.322903 -0.519605,0.428263 -0.361247,0.150513 -0.639888,0.196465 -0.835561,0.136265 -0.180607,-0.07526 -0.278428,-0.195305 -0.293495,-0.360879 -0.01505,-0.18062 0.06054,-0.376262 0.226111,-0.586989 0.165573,-0.210726 0.420486,-0.391546 0.766679,-0.542066 0.120414,-0.04515 0.227873,-0.06888 0.321946,-0.06888 z" />
      <path
         id="path80-0-1-9-4-2"
         style="font-size:22.5778px;font-family:'Blue Winter';-inkscape-font-specification:'Blue Winter';fill:#ffffff;fill-opacity:1;stroke-width:0.264583"
         d="m 79.523568,58.525102 c -0.317493,-0.0041 -0.625386,0.0067 -0.925406,0.03145 -0.301267,0.0097 -0.541229,0.03599 -0.718762,0.08086 -0.51886,0.118246 -0.934459,0.387165 -1.247352,0.805612 -0.297927,0.4172 -0.521829,0.903872 -0.672342,1.459986 -0.150587,0.556093 -0.245177,1.145994 -0.28451,1.768454 -0.02433,0.62122 -0.01482,1.194006 0.02845,1.719039 -0.353507,-0.257833 -0.77488,-0.412236 -1.262326,-0.462703 -0.472447,-0.05165 -0.961146,-0.03458 -1.467473,0.05241 -0.506333,0.08701 -1.008468,0.234713 -1.504908,0.441739 -0.48268,0.19078 -0.910821,0.400273 -1.284787,0.62742 -0.631634,0.399393 -1.147734,0.917216 -1.548334,1.554323 -0.386846,0.62088 -0.649206,1.291427 -0.786146,2.012534 -0.136913,0.721112 -0.144241,1.454598 -0.02246,2.199711 0.135547,0.728873 0.410686,1.407604 0.825079,2.03799 0.41316,0.615394 0.970302,1.143605 1.671122,1.584272 0.715827,0.439406 1.57666,0.708616 2.581554,0.80711 0.304966,0.03529 0.620057,0.01676 0.94637,-0.0554 0.326313,-0.07221 0.652987,-0.143469 0.979313,-0.215629 0.326307,-0.07226 0.639121,-0.113121 0.940381,-0.122788 0.315026,-0.02597 0.614839,0.03243 0.898452,0.175198 0.442274,0.235387 0.914114,0.377499 1.416561,0.426765 0.502446,0.04923 0.967976,0.01053 1.395596,-0.115301 0.427613,-0.12584 0.788094,-0.344897 1.079641,-0.655871 0.307813,-0.297193 0.470456,-0.694955 0.489656,-1.194942 0.04533,-1.64994 0.05339,-3.305179 0.02246,-4.963951 -0.03215,-1.67376 0.049,-3.333122 0.245577,-4.980422 0.03283,-0.334967 0.09075,-0.733531 0.173701,-1.193445 0.09795,-0.461146 0.158254,-0.918148 0.181188,-1.373135 0.0367,-0.471206 0.0172,-0.899964 -0.0599,-1.286284 -0.06213,-0.387554 -0.236771,-0.676239 -0.524098,-0.864012 -0.158706,-0.09239 -0.38419,-0.163829 -0.675337,-0.215629 -0.276193,-0.05287 -0.573472,-0.08135 -0.890965,-0.08535 z m -4.936997,9.267539 c 0.230481,-2e-6 0.437044,0.09264 0.621429,0.277023 0.21074,0.195673 0.308562,0.511361 0.293495,0.947867 -0.03011,0.556919 -0.157567,0.985252 -0.38334,1.286285 -0.210727,0.28596 -0.443416,0.444549 -0.699296,0.474683 -0.240833,0.01505 -0.467605,-0.104992 -0.678331,-0.360879 -0.195674,-0.270933 -0.293495,-0.685941 -0.293495,-1.242859 0,-0.4365 0.105229,-0.767011 0.315956,-0.992791 0.22578,-0.240813 0.467374,-0.368273 0.723254,-0.383339 0.03387,-0.0038 0.0674,-0.006 0.100328,-0.006 z" />
      <path
         style="font-size:22.5778px;font-family:'Blue Winter';-inkscape-font-specification:'Blue Winter';fill:#ffffff;fill-opacity:1;stroke-width:0.264583"
         d="m 64.951744,73.039444 q -0.6096,0.92569 -1.51272,1.51271 -0.90311,0.56445 -1.94169,0.79022 -1.03858,0.22578 -2.14489,0.11289 -1.08373,-0.0903 -2.07716,-0.51929 -0.99341,-0.42897 -1.80621,-1.17404 -0.81281,-0.76765 -1.26436,-1.8288 -0.24836,-0.58703 -0.38382,-1.44498 -0.13547,-0.85796 -0.18063,-1.873958 -0.0452,-1.016 0,-2.07716 0.0677,-1.08373 0.2032,-2.07716 0.13547,-1.016 0.33867,-1.87395 0.22578,-0.85796 0.49671,-1.4224 0.4064,-0.8128 1.10631,-1.12889 0.69992,-0.31609 1.39983,-0.18063 0.72248,0.11289 1.30951,0.67734 0.58702,0.54186 0.74506,1.44498 0.0677,0.38382 0,1.016 -0.0677,0.6096 -0.18062,1.33209 -0.0903,0.69991 -0.2032,1.44498 -0.11289,0.74506 -0.15804,1.4224 -0.0226,0.65475 0.0903,1.17404 0.11289,0.51929 0.42898,0.74507 0.15804,0.13547 0.4064,0.225778 0.27093,0.0903 0.54186,0.0452 0.27094,-0.0452 0.49671,-0.270938 0.24836,-0.22578 0.38383,-0.72249 0.2032,-0.83538 0.18062,-1.60302 0,-0.76765 -0.11289,-1.44498 -0.11289,-0.69991 -0.24835,-1.33209 -0.13547,-0.63218 -0.18063,-1.2192 -0.0452,-0.58703 0.0677,-1.12889 0.13546,-0.56445 0.56444,-1.08374 0.47413,-0.58702 1.10631,-0.79022 0.65476,-0.22578 1.28694,-0.11289 0.65475,0.0903 1.2192,0.51929 0.56444,0.4064 0.85796,1.08373 0.428967,0.99343 0.654747,2.48356 0.24836,1.46756 0.18062,3.11574 -0.0452,1.64818 -0.45155,3.273778 -0.383817,1.6256 -1.219197,2.88996 z"
         id="path78-6-4-19-3-6"
         inkscape:label="path78-6-4" />
      <path
         style="font-size:22.5778px;font-family:'Blue Winter';-inkscape-font-specification:'Blue Winter';fill:#ffffff;fill-opacity:1;stroke-width:0.264583"
         d="m 50.606665,74.657007 q -0.72656,0.42145 -1.58853,0.62397 -0.86197,0.20251 -1.742285,0.15325 -0.860277,-0.0244 -1.696422,-0.27324 -0.838555,-0.22643 -1.515864,-0.6853 -0.654863,-0.45645 -1.108412,-1.09563 -0.428686,-0.65921 -0.541403,-1.51153 -0.169438,-1.3807 -0.01977,-2.7725 0.152083,-1.414248 0.346651,-2.801218 -0.748034,-0.0123 -1.183244,-0.39973 -0.435206,-0.38743 -0.601754,-0.95033 -0.141685,-0.58293 -0.02437,-1.25156 0.142176,-0.68866 0.528877,-1.32831 0.138796,-0.23486 0.377763,-0.34541 0.263831,-0.13059 0.540452,-0.16896 0.299068,-0.0359 0.593313,-0.027 0.31911,-0.0111 0.588491,0.0178 0.04659,-0.22207 0.187076,-0.68382 0.140487,-0.46177 0.305837,-0.94356 0.167764,-0.50425 0.350734,-0.93872 0.20542,-0.43208 0.361835,-0.61963 0.409868,-0.43279 0.970355,-0.57689 0.562902,-0.16654 1.169007,-0.10137 0.630972,0.0451 1.217763,0.28991 0.61166,0.22473 1.09659,0.57208 0.315,0.23825 0.36375,0.62952 0.0736,0.37125 0.003,0.8178 -0.0459,0.42652 -0.2088,0.88587 -0.16052,0.43689 -0.28894,0.78642 0.60369,0.0876 1.16804,0.32998 0.58921,0.22231 1.02683,0.58728 0.43762,0.36497 0.65631,0.86535 0.24354,0.48036 0.15592,1.08405 -0.11177,0.82817 -0.55133,1.3259 -0.43956,0.49772 -1.07704,0.72437 -0.63508,0.2042 -1.40315,0.16702 -0.76808,-0.0371 -1.556904,-0.30366 -0.24718,0.60924 -0.3196,1.28269 -0.07001,0.651 -0.02777,1.314068 0.02389,0.41131 0.241135,0.50281 0.219662,0.069 0.566039,0.0154 0.3488,-0.076 0.74973,-0.21458 0.4258,-0.15858 0.83953,-0.20492 0.7128,-0.0823 1.22982,0.17771 0.51945,0.23753 0.83276,0.70267 0.33576,0.46756 0.43013,1.06811 0.11924,0.58053 -0.0157,1.20184 -0.11007,0.60128 -0.46466,1.15355 -0.3546,0.55227 -0.96167,0.91844 z"
         id="path77-1-2-86-2-0" />
      <path
         style="font-size:22.5778px;font-family:'Blue Winter';-inkscape-font-specification:'Blue Winter';fill:#ffffff;fill-opacity:1;stroke-width:0.291221"
         d="m 82.452371,55.722796 q -0.750102,0.538481 -1.670434,0.850076 -0.920311,0.311598 -1.8864,0.348115 -0.941681,0.06177 -1.879963,-0.125803 -0.938612,-0.162637 -1.724963,-0.597679 -0.761604,-0.434657 -1.3221,-1.091059 -0.535429,-0.681006 -0.745638,-1.606995 -0.326153,-1.501411 -0.305078,-3.047904 0.02138,-1.571437 0.092,-3.117245 -0.817909,0.06349 -1.332648,-0.317813 -0.514739,-0.381343 -0.754126,-0.983419 -0.214277,-0.626668 -0.154573,-1.374287 0.08531,-0.772157 0.441559,-1.515724 0.127522,-0.272668 0.377074,-0.418895 0.274683,-0.170842 0.572754,-0.241561 0.322819,-0.07036 0.644959,-0.09085 0.347238,-0.04511 0.64429,-0.04102 0.02818,-0.249099 0.134309,-0.771542 0.106141,-0.522444 0.237392,-1.069485 0.131634,-0.571984 0.28692,-1.068802 0.180077,-0.496471 0.331657,-0.718909 0.403203,-0.518324 1.000354,-0.734598 0.597513,-0.241218 1.26586,-0.231962 0.693468,-0.01537 1.359106,0.193473 0.690727,0.184213 1.255652,0.516349 0.368258,0.229626 0.461493,0.655037 0.118334,0.400808 0.08673,0.899326 -0.0066,0.473932 -0.137325,0.99604 -0.130549,0.497156 -0.235023,0.89488 0.668018,0.03425 1.30892,0.242614 0.665978,0.183851 1.181057,0.54025 0.515079,0.356398 0.804981,0.88432 0.315012,0.503329 0.281076,1.176454 -0.03739,0.92256 -0.466307,1.515395 -0.428982,0.592806 -1.101759,0.907826 -0.672436,0.290075 -1.514764,0.328319 -0.842317,0.03829 -1.730753,-0.1736 -0.207544,0.695681 -0.217774,1.443979 -0.0099,0.723363 0.104057,1.448429 0.06809,0.450002 0.314672,0.528262 0.246854,0.05328 0.619531,-0.04137 0.373006,-0.119575 0.796549,-0.313302 0.448631,-0.21832 0.895563,-0.311926 0.769762,-0.163994 1.360795,0.06875 0.591383,0.207785 0.98099,0.687179 0.414366,0.479749 0.578807,1.130669 0.18954,0.626338 0.105812,1.323725 -0.05866,0.672795 -0.389333,1.316867 -0.330637,0.644074 -0.955946,1.109437 z"
         id="path74-9-0-5-2-2" />
      <path
         style="font-size:22.5778px;font-family:'Blue Winter';-inkscape-font-specification:'Blue Winter';fill:#ffffff;fill-opacity:1;stroke-width:0.286969"
         d="m 70.552525,55.387781 q -0.703726,0.576659 -1.587956,0.939934 -0.884219,0.363275 -1.829745,0.458068 -0.920061,0.118188 -1.85165,-0.0097 -0.930439,-0.103322 -1.727747,-0.484457 -0.773008,-0.382301 -1.361966,-0.995516 -0.565811,-0.639008 -0.827213,-1.539393 -0.409446,-1.460777 -0.480947,-2.987144 -0.07263,-1.551 -0.09559,-3.079706 -0.798547,0.11239 -1.32621,-0.232334 -0.527674,-0.344754 -0.798375,-0.923925 -0.247576,-0.604951 -0.233556,-1.345866 0.03707,-0.766681 0.342806,-1.521604 0.108819,-0.276656 0.34494,-0.436037 0.259267,-0.185194 0.547437,-0.273063 0.312481,-0.08898 0.627268,-0.12886 0.337935,-0.06567 0.629586,-0.07966 0.01282,-0.247363 0.08578,-0.769026 0.07296,-0.521675 0.169146,-1.069132 0.09494,-0.572078 0.217735,-1.071451 0.147054,-0.500567 0.282502,-0.72914 0.364628,-0.53568 0.937529,-0.785293 0.571749,-0.274224 1.227931,-0.305769 0.679318,-0.05761 1.344745,0.108071 0.688564,0.139634 1.26253,0.432805 0.37493,0.204052 0.491745,0.617887 0.139974,0.388076 0.138767,0.881605 0.02188,0.467763 -0.07543,0.990606 -0.0985,0.498214 -0.177206,0.896794 0.657334,-0.007 1.298439,0.159651 0.664253,0.140782 1.190784,0.460916 0.52651,0.320134 0.842364,0.823111 0.339013,0.477194 0.345845,1.143064 0.01843,0.912066 -0.367106,1.522786 -0.38548,0.610705 -1.026672,0.962293 -0.642355,0.326979 -1.466356,0.415929 -0.824001,0.08898 -1.708142,-0.06592 -0.16214,0.698675 -0.127527,1.437237 0.03341,0.713952 0.188457,1.422043 0.09365,0.439638 0.340162,0.501816 0.245323,0.0375 0.605263,-0.07852 0.358787,-0.140625 0.762716,-0.357432 0.427077,-0.2426 0.859919,-0.362094 0.745334,-0.208554 1.33898,-0.01503 0.592504,0.168927 1.003265,0.617977 0.435073,0.447902 0.635179,1.079816 0.223263,0.606134 0.182626,1.298966 -0.01746,0.667041 -0.303429,1.322315 -0.28595,0.655276 -0.871611,1.152249 z"
         id="path73-6-9-0-1-4" />
      <path
         id="path72-3-7-2-6-8"
         style="font-size:22.5778px;font-family:'Blue Winter';-inkscape-font-specification:'Blue Winter';fill:#ffffff;fill-opacity:1;stroke-width:0.264583"
         d="m 51.622121,37.968506 c -0.649001,0.0122 -1.304251,0.113743 -1.967611,0.303976 -0.86966,0.238369 -1.708203,0.596838 -2.51417,1.075148 -0.790921,0.47809 -1.483396,1.015568 -2.076923,1.611225 -0.593309,0.610725 -1.072145,1.295013 -1.437524,2.052965 -0.365597,0.742905 -0.648585,1.521717 -0.847541,2.337474 -0.198953,0.815763 -0.336666,1.646091 -0.414785,2.490211 -0.06305,0.8439 -0.09679,1.663873 -0.100328,2.461761 0.0048,0.331108 0.01839,0.790888 0.04193,1.377627 0.02354,0.586746 0.07755,1.18842 0.161722,1.804392 0.08395,0.600924 0.198126,1.170203 0.341412,1.710055 0.158334,0.539637 0.366585,0.927888 0.625922,1.164994 0.305356,0.296662 0.737102,0.486776 1.295269,0.56902 0.558385,0.09728 1.115566,0.09685 1.671122,-0.0015 0.570827,-0.08352 1.081061,-0.257223 1.528867,-0.519605 0.463073,-0.247548 0.735933,-0.567238 0.820587,-0.959847 0.0716,-0.256948 0.0975,-0.595564 0.07637,-1.016749 -0.0061,-0.421408 -0.03561,-0.894938 -0.08835,-1.421052 0.1649,-0.04753 0.382182,-0.08135 0.652876,-0.100327 0.285733,-0.0192 0.572062,-0.03031 0.858022,-0.03444 0.300787,-0.01944 0.579494,-0.02337 0.835561,-0.01198 0.255853,-0.0037 0.443901,1.5e-4 0.564528,0.01348 h 0.02246 c -0.021,0.632544 -0.02816,1.196918 -0.02096,1.693584 0.02223,0.49644 0.08796,0.893962 0.19766,1.193444 0.12584,0.374521 0.415661,0.656921 0.870001,0.846043 0.454334,0.18911 0.953671,0.295167 1.495924,0.317453 0.5573,0.02205 1.105819,-0.0394 1.645666,-0.182685 0.5549,-0.143505 0.987615,-0.351949 1.299761,-0.627419 h 0.0015 c 0.326966,-0.290746 0.590349,-0.747043 0.792135,-1.367146 0.201534,-0.635168 0.349794,-1.31406 0.444734,-2.03799 0.09495,-0.72393 0.152137,-1.432091 0.172204,-2.12484 0.0198,-0.69275 0.01964,-1.249931 -0.0015,-1.671122 -0.04315,-0.902587 -0.124799,-1.835488 -0.244079,-2.797183 -0.104447,-0.976963 -0.298324,-1.921963 -0.582497,-2.836115 -0.269127,-0.914372 -0.649612,-1.759487 -1.142532,-2.535134 -0.493147,-0.79071 -1.142652,-1.45081 -1.948145,-1.981088 -0.714327,-0.471422 -1.508604,-0.731119 -2.382397,-0.778659 -0.214738,-0.01571 -0.430552,-0.02204 -0.646886,-0.01797 z m -1.507903,5.642282 c 0.16369,0.0028 0.318943,0.02673 0.465698,0.07188 0.210727,0.06021 0.391547,0.15062 0.542067,0.271034 0.346193,0.30104 0.564066,0.828683 0.654373,1.581276 0.105393,0.73754 0.143937,1.580878 0.113804,2.529144 -0.301034,0.18062 -0.572267,0.30808 -0.8131,0.38334 -0.63218,0.210727 -1.316922,0.270004 -2.054462,0.179691 -0.07526,-0.015 -0.204217,-0.03725 -0.384837,-0.06738 -0.18062,-0.04518 -0.322896,-0.08964 -0.428262,-0.134768 -0.03007,-0.496707 -0.05232,-0.97099 -0.06738,-1.42255 0,-0.466607 0.01479,-0.88753 0.04492,-1.263823 0.04516,-0.391354 0.113343,-0.730769 0.203649,-1.016749 0.105367,-0.30104 0.247643,-0.533723 0.428263,-0.699296 0.135467,-0.135473 0.30147,-0.233295 0.497144,-0.293495 0.210726,-0.07526 0.421185,-0.113804 0.631911,-0.113804 0.05645,-0.0038 0.111651,-0.0054 0.166214,-0.0045 z" />
      <path
         style="font-size:22.5778px;font-family:'Blue Winter';-inkscape-font-specification:'Blue Winter';fill:#ffffff;fill-opacity:1;stroke-width:0.308632"
         d="m 90.484948,56.153812 q -0.331769,0.331345 -0.856191,0.482948 -0.498085,0.154571 -1.086481,0.167285 -0.565072,0.04165 -1.141439,-0.04965 -0.550029,-0.08835 -0.953365,-0.291811 -0.683998,-0.314124 -1.01818,-1.11558 -0.334192,-0.801469 -0.462988,-1.764151 -0.12579,-0.988686 -0.116896,-1.988522 0.03827,-1.022877 0.06974,-1.756799 0.01045,-0.551919 0.147302,-1.273959 0.166146,-0.745084 0.408368,-1.455243 0.268527,-0.707206 0.627351,-1.272545 0.38818,-0.588371 0.868945,-0.823904 0.507104,-0.232577 1.15118,-0.265345 0.67341,-0.05581 1.296449,0.09337 0.652358,0.126244 1.175351,0.448519 0.522978,0.322306 0.784899,0.825907 0.197936,0.36471 0.157409,1.176621 -0.01127,0.788873 -0.142679,1.695897 -0.102209,0.883969 -0.224767,1.712974 -0.122559,0.829006 -0.141291,1.221969 -0.01572,0.366962 -0.0059,0.973845 0.0099,0.606871 -0.03896,1.259829 -0.01943,0.629928 -0.138285,1.195968 -0.118858,0.566041 -0.359553,0.802299 z"
         id="path76-8-7-8-8-6" />
      <path
         id="path75-4-2-60-5-5"
         style="font-size:22.5778px;font-family:'Blue Winter';-inkscape-font-specification:'Blue Winter';fill:#ffffff;fill-opacity:1;stroke-width:0.308632"
         d="m 90.492177,38.545013 c -0.204064,0.0055 -0.410518,0.02167 -0.618435,0.05091 -0.829663,0.09964 -1.533059,0.337306 -2.109866,0.711275 -0.576815,0.373961 -0.950097,0.839973 -1.121568,1.400089 -0.17148,0.560114 -1.35e-4,1.151505 0.515113,1.771449 0.250844,0.291651 0.501358,0.590971 0.750207,0.89995 0.268408,0.293591 0.592583,0.48031 0.974822,0.558538 0.606472,0.138579 1.234682,0.08551 1.885253,-0.157229 0.652567,-0.26007 1.22501,-0.590098 1.716044,-0.991293 0.352098,-0.276377 0.612664,-0.606487 0.781654,-0.991293 0.188527,-0.400158 0.278089,-0.794204 0.269536,-1.181465 -0.0066,-0.404591 -0.114711,-0.767766 -0.326438,-1.090122 -0.194169,-0.320378 -0.504495,-0.557812 -0.931396,-0.711275 -0.577516,-0.19675 -1.172733,-0.286153 -1.784926,-0.269536 z m -1.382119,1.0452 c 0.02937,-5.38e-4 0.05743,0.003 0.08535,0.01048 0.07732,0.01781 0.146189,0.05679 0.205146,0.115301 0.05681,0.05571 0.09916,0.125998 0.128778,0.211136 0.03035,0.08018 0.03907,0.164773 0.02695,0.254562 -0.01465,0.127556 -0.05069,0.255456 -0.109312,0.384837 -0.0608,0.126555 -0.145573,0.223122 -0.254561,0.287505 -0.06725,0.04204 -0.141461,0.05969 -0.223116,0.05391 -0.08086,-0.01067 -0.160916,-0.02068 -0.239587,-0.02845 -0.16458,-0.01913 -0.274342,-0.08092 -0.329433,-0.187177 -0.05507,-0.106265 -0.06706,-0.226831 -0.03594,-0.362376 0.03119,-0.135538 0.100545,-0.26926 0.208141,-0.399812 0.105434,-0.1334 0.233961,-0.235098 0.384838,-0.303976 0.05295,-0.0232 0.103791,-0.03504 0.152737,-0.03594 z m 2.556097,0.281515 c 0.02937,-5.38e-4 0.05743,0.003 0.08535,0.01048 0.07731,0.01781 0.146181,0.05678 0.205147,0.115301 0.05673,0.0557 0.09909,0.125986 0.128778,0.211137 0.03035,0.08018 0.03907,0.164772 0.02695,0.254561 -0.01464,0.127555 -0.05068,0.255455 -0.109312,0.384837 -0.0608,0.126556 -0.145581,0.223122 -0.254561,0.287505 -0.06725,0.04204 -0.141454,0.05969 -0.223116,0.05391 -0.08085,-0.01067 -0.160916,-0.02067 -0.239588,-0.02845 -0.164579,-0.01913 -0.274342,-0.08092 -0.329432,-0.187177 -0.05507,-0.106264 -0.06706,-0.22683 -0.03594,-0.362376 0.03111,-0.135546 0.100472,-0.269269 0.208141,-0.399812 0.105432,-0.1334 0.233959,-0.235098 0.384837,-0.303976 0.05295,-0.0232 0.103792,-0.03504 0.152737,-0.03594 z" />
      <rect
         style="fill:#ffffff;stroke:#739771;stroke-width:0.541643;stroke-dasharray:none;stroke-opacity:1"
         id="rect3-6-8-0-2"
         width="37.114319"
         height="6.7676463"
         x="45.348461"
         y="77.562584"
         ry="2.8902714"
         transform="matrix(0.99698274,-0.07762355,0.03798588,0.99927828,0,0)" />
      <path
         style="font-size:24.2842px;line-height:0;font-family:'Melon Pop';-inkscape-font-specification:'Melon Pop';letter-spacing:12.4878px;white-space:pre;fill:#739771"
         d="m 67.419725,290.7024 q -0.4614,0.0243 -0.898516,0.0486 -0.437116,0.0243 -0.898515,0.0243 -0.437116,0 -0.898516,-0.16999 -0.4614,-0.16999 -0.655673,-0.53425 -0.267126,-0.41283 -0.339979,-0.89852 -0.04857,-0.50996 -0.07285,-0.99565 -0.02428,-0.94708 0,-1.86988 0.02428,-0.94709 0.07285,-1.86989 0.04857,-0.97136 0.07285,-1.91845 0.04857,-0.97137 0.121421,-1.94273 0.09714,-1.09279 0.242842,-2.13701 0.145705,-1.04422 0.339978,-2.11273 0.04857,-0.70424 0.121421,-1.43277 0.09714,-0.72852 0.194274,-1.43276 0,-0.0971 0.02428,-0.33998 0.02428,-0.24285 0.04857,-0.50997 0.04857,-0.26713 0.09714,-0.50997 0.04857,-0.24284 0.09714,-0.33998 0.09714,-0.12142 0.218558,-0.19427 0.145705,-0.0971 0.29141,-0.12142 0.121421,-0.0486 0.267127,-0.0486 0.145705,0 0.29141,-0.0243 1.092789,-0.12142 2.161294,-0.21855 1.092789,-0.0971 2.185578,-0.12142 0.582821,0 1.141357,0.0243 0.582821,0.0243 1.165642,0.0728 0.75281,0.0486 1.481336,0.0729 0.752811,0.0243 1.505621,0.0971 0.194273,0.0243 0.364263,0.0486 0.169989,0.0243 0.339979,0.0971 0.121421,0.0486 0.194273,0.19427 0.09714,0.14571 0.145705,0.26713 0.02429,0.12142 0,0.24284 -0.02428,0.0971 -0.02428,0.21856 -0.07285,0.41283 -0.145705,0.82566 -0.04857,0.38855 -0.09714,0.80138 -0.04857,0.29141 -0.07285,0.6071 -0.02428,0.29141 -0.121421,0.60711 -0.04857,0.12142 -0.145706,0.26712 -0.07285,0.14571 -0.194273,0.21856 -0.267126,0.19428 -0.728526,0.19428 -0.558537,-0.0486 -1.141358,-0.0971 -0.558536,-0.0729 -1.141357,-0.14571 -0.9228,-0.12142 -1.869884,-0.21855 -0.922799,-0.0971 -1.869883,-0.14571 0,0.14571 -0.02428,0.19427 -0.16999,0.50997 -0.315695,1.04422 -0.145705,0.50997 -0.29141,1.04423 0.679957,0.0486 1.335631,0.12142 0.679957,0.0486 1.384199,0.12142 0.339979,0.0486 0.679958,0.0729 0.364263,0.0243 0.704242,0.14571 0.242842,0.0971 0.437115,0.24284 0.218558,0.12142 0.315695,0.31569 0.169989,0.36427 0.121421,0.7771 -0.02428,0.41283 -0.07285,0.80138 -0.04857,0.46139 -0.09714,0.92279 -0.02428,0.4614 -0.145705,0.89852 -0.121421,0.38855 -0.4614,0.4614 -0.121421,0.0243 -0.364263,0 -0.242842,-0.0243 -0.509968,-0.0486 -0.267126,-0.0486 -0.509968,-0.0729 -0.242842,-0.0486 -0.339979,-0.0486 -0.607105,-0.0729 -1.189926,-0.12142 -0.58282,-0.0486 -1.165641,-0.0971 h -0.315695 q 0.02428,0.12142 -0.02428,0.43712 -0.04857,0.29141 -0.07285,0.41283 -0.121421,1.14136 -0.145705,2.25843 -0.02428,0.16999 -0.02428,0.3157 0,0.1457 0,0.29141 0.07285,0.0243 0.145705,0.0486 0.09714,0.0243 0.16999,0.0243 0.849947,0.12142 1.699894,-0.0486 0.874231,-0.19427 1.724178,-0.31569 0.485684,-0.0971 0.971368,-0.14571 0.509968,-0.0729 0.995652,-0.12142 0.315695,-0.0486 0.631389,-0.0729 0.315695,-0.0486 0.63139,0.0243 0.412831,0.0971 0.607105,0.41283 0.04857,0.0728 0.07285,0.24284 0.04857,0.16999 0.07285,0.36427 0.04857,0.19427 0.07285,0.38854 0.04857,0.16999 0.04857,0.24285 0.04857,0.41283 0.09714,0.84994 0.07285,0.43712 0.169989,0.87423 0.02428,0.0971 0.07285,0.41284 0.04857,0.29141 0.02428,0.38854 -0.121421,0.55854 -0.655674,0.63139 -0.534252,0.0729 -1.068504,0.0971 -0.509969,0.0243 -1.019937,0.0971 -1.554189,0.24284 -3.108378,0.36426 -1.554188,0.12142 -3.132661,0.16999 z m 24.872739,-0.14571 q -0.29141,0.0486 -0.607105,0.0971 -0.29141,0.0486 -0.582821,0 -0.388547,-0.0486 -0.558536,-0.41283 0,-0.0971 -0.04857,-0.0971 -0.07285,-0.12142 -0.09714,-0.36426 0,-0.24284 0,-0.50997 0.02428,-0.29141 0.04857,-0.53425 0.04857,-0.26713 0.07285,-0.41283 0.267126,-2.307 0.267126,-4.614 0,-2.33128 -0.16999,-4.66257 -0.09714,-1.31134 -0.194273,-2.59841 -0.07285,-1.31134 -0.121421,-2.62269 0,-0.14571 0,-0.29141 0,-0.14571 0.04857,-0.26713 0.04857,-0.12142 0.121421,-0.19427 0.09714,-0.0971 0.194274,-0.14571 0.169989,-0.0728 0.339979,-0.0971 0.169989,-0.0243 0.364263,-0.0486 0.874231,-0.12142 1.627041,-0.36426 0.339979,-0.12143 0.655673,-0.26713 0.315695,-0.14571 0.63139,-0.29141 0.218557,-0.0971 0.461399,-0.12142 0.242842,-0.0486 0.437116,0.0728 0.194274,0.12142 0.267126,0.33998 0.09714,0.21856 0.16999,0.41283 0.121421,0.31569 0.218558,0.63139 0.121421,0.29141 0.242842,0.63139 0.29141,0.84995 0.607105,1.65132 0.339978,0.80138 0.631389,1.65133 0.339979,0.89852 0.631389,1.79703 0.29141,0.87423 0.558537,1.79703 0.04857,-0.0486 0.07285,-0.0486 0.509968,-0.53425 0.9228,-1.11707 0.437115,-0.58282 0.874228,-1.18993 0.60711,-0.84994 1.16564,-1.69989 0.58283,-0.84995 1.11708,-1.72418 0.50997,-0.84995 0.94708,-1.69989 0.4614,-0.87423 0.87423,-1.74846 0.0729,-0.12143 0.24284,-0.38855 0.16999,-0.26713 0.29142,-0.3157 0.31569,-0.16999 0.65567,-0.0729 0.36426,0.0729 0.70424,0.16999 0.72853,0.19427 1.45705,0.3157 0.75281,0.12142 1.52991,0.16998 0.0971,0.0243 0.19427,0.0486 0.12142,0 0.21856,0.0486 0.26712,0.12142 0.33998,0.38855 0.0729,0.24284 -0.0729,0.50997 -0.0971,0.84994 -0.21855,1.69989 -0.12142,0.84995 -0.19428,1.69989 -0.12142,1.16565 -0.1457,2.33129 0,1.14136 0,2.307 -0.0486,2.16129 0,4.32258 0.0243,0.7771 0.0243,1.57848 0.0243,0.77709 0.0971,1.55419 0.0486,0.43711 0.0971,0.89851 0.0729,0.4614 -0.14571,0.82566 -0.0729,0.12143 -0.21856,0.19428 -0.12142,0.0728 -0.24284,0.12142 -0.24284,0.0971 -0.50997,0.0971 -0.24284,0.0243 -0.48568,0.0486 -0.58282,0.0486 -1.16564,0.0729 -0.55854,0.0243 -1.14136,0.0486 -0.26713,0 -0.53425,-0.0486 -0.26713,-0.0243 -0.48569,-0.14571 -0.0486,-0.0486 -0.19427,-0.1457 -0.14571,-0.12142 -0.19427,-0.16999 -0.19428,-0.26713 -0.21856,-0.60711 -0.0243,-0.33998 -0.0486,-0.67996 -0.0243,-0.55853 -0.0486,-1.09278 0,-0.55854 -0.0243,-1.11708 0,-2.71983 0.36426,-5.41537 -0.58282,0.9228 -1.21421,1.8456 -0.6071,0.89851 -1.16564,1.86988 -0.33998,0.6071 -0.63139,1.21421 -0.26713,0.6071 -0.60711,1.21421 0.0971,0.19427 -0.0243,0.43711 -0.0971,0.21856 -0.31569,0.26713 -0.0243,0 -0.0486,0.0243 -0.0243,0 -0.0486,0 -0.24284,0.0971 -0.485685,0.0243 -0.242842,-0.0728 -0.509968,-0.12142 -0.485684,-0.0971 -1.019937,0 -0.509968,0.0729 -0.995652,-0.0243 -0.607105,-0.0971 -0.9228,-0.63139 -0.169989,-0.31569 -0.267126,-0.65567 -0.07285,-0.33998 -0.169989,-0.67996 -0.194274,-0.67995 -0.4614,-1.31134 -0.267126,-0.65568 -0.558537,-1.28707 0.194274,1.04422 0.388548,2.08845 0.194273,1.01993 0.364263,2.06415 0.07285,0.48569 0.121421,0.99565 0.04857,0.48569 0.02428,0.97137 -0.02428,0.3157 -0.16999,0.63139 -0.121421,0.3157 -0.388547,0.50997 -0.218558,0.14571 -0.509968,0.16999 -0.267126,0.0243 -0.534253,0.0486 -0.485684,0.0486 -0.995652,0.0728 -0.485684,0.0243 -0.971368,0.0729 z m 41.046026,-0.0486 q -0.70425,0.19428 -1.43277,0.24285 -0.72853,0.0486 -1.43277,0.0243 -1.31135,-0.0486 -2.4527,-0.63139 -0.82567,-0.41283 -1.52991,-1.04422 -0.67996,-0.65567 -1.18992,-1.40848 -0.89852,-1.31135 -1.28707,-2.88982 -0.36426,-1.60276 -0.41283,-3.20552 -0.0243,-1.0685 0.0486,-2.11272 0.0971,-1.06851 0.31569,-2.08844 0.48569,-2.13701 1.6999,-3.93404 0.84995,-1.2385 2.01559,-1.94274 1.16564,-0.72853 2.47699,-0.94708 1.31134,-0.24285 2.67126,0 1.3842,0.24284 2.64698,0.9228 0.6071,0.33997 1.0685,0.82566 0.48568,0.4614 0.89852,1.01993 0.58282,0.7771 0.94708,1.6999 0.38855,0.9228 0.63139,1.8456 0.29141,1.14136 0.33998,2.35557 0.0728,1.18992 -0.0729,2.37985 -0.14571,1.18992 -0.48569,2.35556 -0.33998,1.16565 -0.87423,2.20987 -0.48568,0.94708 -1.16564,1.82131 -0.65567,0.87423 -1.50562,1.52991 -0.84995,0.65567 -1.91845,0.97136 z m -2.69555,-5.17253 q 0.38855,0.16999 0.80138,0.12142 0.41283,-0.0486 0.80138,-0.24284 0.41283,-0.21856 0.75281,-0.48569 0.48568,-0.41283 0.82566,-0.97136 0.33998,-0.55854 0.55854,-1.16564 0.38854,-1.16565 0.4614,-2.37986 0.0728,-1.23849 -0.26713,-2.40413 -0.19427,-0.60711 -0.50997,-1.18993 -0.29141,-0.58282 -0.77709,-0.99565 -0.36427,-0.33998 -0.94709,-0.36426 -0.58282,-0.0243 -1.0685,0.12142 -0.0728,0.0243 -0.21856,0.0971 -0.1457,0.0486 -0.31569,0.12143 -0.14571,0.0729 -0.29141,0.16998 -0.14571,0.0729 -0.19428,0.14571 -0.36426,0.41283 -0.65567,0.89852 -0.26713,0.48568 -0.48568,0.99565 -0.41284,1.04422 -0.53426,2.18558 -0.0971,1.11707 0.0243,2.20986 0.0728,1.04422 0.53425,1.89417 0.26713,0.41283 0.63139,0.75281 0.38855,0.31569 0.87423,0.48568 z m 27.64115,5.12397 q -0.43712,0 -0.89852,0.0243 -0.43711,0.0243 -0.87423,0 -0.72852,-0.0243 -1.45705,-0.0486 -0.72853,-0.0243 -1.43277,-0.0729 -0.21855,-0.0243 -0.43711,-0.0486 -0.21856,0 -0.43712,-0.0486 -0.48568,-0.16999 -0.70424,-0.53425 -0.0728,-0.14571 -0.12142,-0.48568 -0.0243,-0.36427 -0.0486,-0.75281 0,-0.38855 0,-0.72853 0,-0.36426 0,-0.53425 0,-0.19428 0,-0.41283 0.0243,-0.21856 0.0971,-0.41284 0.0486,-0.12142 0.12142,-0.24284 0.0971,-0.12142 0.21856,-0.16999 0.1457,-0.0729 0.43711,-0.0729 0.3157,-0.0243 0.63139,0.0243 0.33998,0.0243 0.67996,0.0729 0.33998,0.0486 0.55854,0.0971 v -0.72852 q 0.0729,-2.54984 0.19427,-5.05112 0.1457,-2.52555 0.55854,-5.02683 0.0486,-0.12142 0.0486,-0.24284 0.0243,-0.1457 0.0486,-0.26712 -0.26712,0.0243 -0.53425,0.0243 -0.24284,0 -0.50997,0.0486 -0.33998,0.0486 -0.67996,0.0971 -0.31569,0.0243 -0.6071,-0.0971 -0.0728,-0.0243 -0.19427,-0.0971 -0.12143,-0.0971 -0.16999,-0.1457 -0.19428,-0.33998 -0.19428,-0.72853 0.0243,-0.38855 0.0728,-0.75281 0,-0.12142 0,-0.36426 0.0243,-0.24284 0.0486,-0.50997 0.0243,-0.26713 0.0729,-0.48568 0.0486,-0.24285 0.1457,-0.33998 0.0971,-0.0971 0.3157,-0.14571 0.24284,-0.0729 0.50996,-0.0971 0.26713,-0.0486 0.53426,-0.0729 0.26712,-0.0243 0.41283,-0.0486 0.36426,-0.0243 0.72852,-0.0243 0.38855,0 0.75281,0 1.06851,0.0243 2.11273,0.0486 1.0685,0 2.13701,0.0971 0.29141,0.0486 0.55854,0.0971 0.29141,0.0243 0.58282,0.0728 0.12142,0 0.31569,0.0486 0.19427,0.0243 0.38855,0.0729 0.21856,0.0486 0.38855,0.12142 0.19427,0.0728 0.26712,0.16999 0.12142,0.12142 0.14571,0.29141 0.0486,0.16999 0.0486,0.33998 -0.0486,0.55853 -0.16999,1.0685 -0.12142,0.50997 -0.16999,1.0685 -0.0243,0.16999 -0.0729,0.36427 -0.0243,0.16999 -0.1457,0.31569 -0.0728,0.0729 -0.16999,0.12142 -0.0971,0.0243 -0.19427,0.0729 -0.19428,0.0486 -0.67996,0 -0.48569,-0.0729 -0.94709,-0.14571 -0.0243,0.0729 -0.0243,0.16999 0,0.0729 -0.0243,0.14571 -0.19428,1.26277 -0.36427,2.50127 -0.16999,1.23849 -0.21855,2.50127 -0.0486,1.14136 -0.0486,2.25843 0.0243,1.09279 0.0728,2.23415 0.0243,0.19427 0.0243,0.38855 0,0.16998 0.0243,0.36426 h 0.0971 q 0.36427,0.0243 0.72853,0.0243 0.38855,-0.0243 0.75281,-0.0243 0.24284,0 0.4614,0.0243 0.24284,0.0243 0.43712,0.14571 0.16999,0.0728 0.26712,0.26712 0.0971,0.19428 0.14571,0.43712 0.0486,0.24284 0.0486,0.48568 0.0243,0.24285 0.0243,0.41283 0,0.50997 0.0486,1.01994 0.0486,0.50997 -0.0486,0.99565 -0.0486,0.12142 -0.0971,0.26713 -0.0243,0.12142 -0.0971,0.24284 -0.12142,0.14571 -0.36427,0.19428 -0.21855,0.0729 -0.50996,0.0971 -0.26713,0.0243 -0.55854,0.0243 -0.26713,0 -0.43712,0 -0.65567,0 -1.31134,-0.0243 -0.65568,0 -1.31135,0.0243 z"
         id="text1-5-9-6-7"
         transform="matrix(0.17414569,-0.01080354,0.00947399,0.19858465,44.384012,21.366672)"
         aria-label="EMOI" />
      <path
         style="fill:#447821;fill-opacity:1;stroke:#739771;stroke-width:0.287999;stroke-opacity:1"
         d="m 50.760023,61.974541 c 0.09435,-0.0076 0.187383,-0.03135 0.273882,-0.0698 0.03736,-0.01661 0.07379,-0.03604 0.113302,-0.04653 0.03367,-0.0089 0.06871,-0.01113 0.103018,-0.01715 0.01167,-0.002 0.02327,-0.0045 0.03475,-0.0075"
         id="path8-9"
         transform="matrix(1.9813228,-0.46568674,0.19437341,1.1347492,-53.69528,27.455693)"
         inkscape:original-d="m 50.760023,61.974541 c 0.08257,-0.0052 0.163084,-0.02716 0.240322,-0.05639 0.01717,-0.0065 0.01937,-0.0067 0.03356,-0.01341 0.0016,-7.94e-4 0.01818,-0.01074 0.01879,-0.01074 0.0045,-0.0022 0.0088,-0.0048 0.01344,-0.0067 0.0182,-0.0077 0.03783,-0.01351 0.05639,-0.02014 0.02615,-0.0093 0.05281,-0.02031 0.08055,-0.02417 0.02508,-0.0035 0.05893,0.0021 0.0819,-0.0094"
         inkscape:path-effect="#path-effect8-6;#path-effect9-1" />
    </g>
  </g>
</svg>
